<svg width="21" height="21" viewBox="0 0 21 21" fill="none" xmlns="http://www.w3.org/2000/svg">
<path fill-rule="evenodd" clip-rule="evenodd" d="M18.5001 5.00037C18.6331 5.89537 18.9495 10.1721 18.9495 11.3031C18.9495 18.2411 16.6375 20.5531 9.69952 20.5531C2.76252 20.5531 0.449524 18.2411 0.449524 11.3031C0.449524 4.3661 2.76252 2.0531 9.69952 2.0531C10.8095 2.0531 15.6181 2.37237 16.5001 2.50037" fill="#5B67CA"/>
<path d="M4.91711 13.8539L7.91011 9.96487L11.3241 12.6449L14.2531 8.86487" stroke="white" stroke-width="1.5" stroke-linecap="round" stroke-linejoin="round"/>
<path fill-rule="evenodd" clip-rule="evenodd" d="M17.6671 1.34998C18.7291 1.34998 19.5891 2.20998 19.5891 3.27198C19.5891 4.33298 18.7291 5.19398 17.6671 5.19398C16.6051 5.19398 15.7451 4.33298 15.7451 3.27198C15.7451 2.20998 16.6051 1.34998 17.6671 1.34998Z" fill="#E88B8C" stroke="#E88B8C" stroke-width="1.5" stroke-linecap="round" stroke-linejoin="round"/>
</svg>
